<svg width="26" height="26" viewBox="0 0 26 26" fill="none" xmlns="http://www.w3.org/2000/svg">
<path d="M2.6295 11.6057H24.2723C24.5593 11.6057 24.8346 11.7416 25.0375 11.9833C25.2405 12.2251 25.3545 12.5531 25.3545 12.895C25.3545 13.237 25.2405 13.5649 25.0375 13.8067C24.8346 14.0485 24.5593 14.1843 24.2723 14.1843H2.6295C2.3425 14.1843 2.06726 14.0485 1.86432 13.8067C1.66137 13.5649 1.54736 13.237 1.54736 12.895C1.54736 12.5531 1.66137 12.2251 1.86432 11.9833C2.06726 11.7416 2.3425 11.6057 2.6295 11.6057Z" fill="#46E4E3"/>
<path d="M3.07711 12.8948L12.0524 23.5858C12.2556 23.8279 12.3697 24.1562 12.3697 24.4986C12.3697 24.841 12.2556 25.1693 12.0524 25.4114C11.8492 25.6535 11.5736 25.7896 11.2862 25.7896C10.9989 25.7896 10.7233 25.6535 10.5201 25.4114L0.78081 13.8076C0.680034 13.6878 0.60008 13.5456 0.545526 13.3889C0.490972 13.2323 0.462891 13.0644 0.462891 12.8948C0.462891 12.7252 0.490972 12.5573 0.545526 12.4006C0.60008 12.244 0.680034 12.1017 0.78081 11.9819L10.5201 0.378108C10.7233 0.136009 10.9989 0 11.2862 0C11.5736 0 11.8492 0.136009 12.0524 0.378108C12.2556 0.620207 12.3697 0.948564 12.3697 1.29094C12.3697 1.63332 12.2556 1.96168 12.0524 2.20378L3.07711 12.8948Z" fill="#46E4E3"/>
</svg>
