<svg width="24" height="24" viewBox="0 0 24 24" fill="none" xmlns="http://www.w3.org/2000/svg">
<path d="M4.8125 10.375C6.8125 14.25 9.75 17.1875 13.625 19.1875L16.5625 16.25C16.9792 15.8333 17.4375 15.7292 17.9375 15.9375C19.4375 16.4375 21.0208 16.6875 22.6875 16.6875C23.0625 16.6875 23.375 16.8125 23.625 17.0625C23.875 17.3125 24 17.625 24 18V22.6875C24 23.0625 23.875 23.375 23.625 23.625C23.375 23.875 23.0625 24 22.6875 24C16.4375 24 11.0833 21.7917 6.625 17.375C2.20833 12.9167 0 7.5625 0 1.3125C0 0.9375 0.125 0.625 0.375 0.375C0.625 0.125 0.9375 0 1.3125 0H6C6.375 0 6.6875 0.125 6.9375 0.375C7.1875 0.625 7.3125 0.9375 7.3125 1.3125C7.3125 2.97917 7.5625 4.5625 8.0625 6.0625C8.22917 6.60417 8.125 7.0625 7.75 7.4375L4.8125 10.375Z" fill="#E51110"/>
</svg>
